<?xml version="1.0" standalone="no"?>
<!DOCTYPE svg PUBLIC "-//W3C//DTD SVG 20010904//EN"
 "http://www.w3.org/TR/2001/REC-SVG-20010904/DTD/svg10.dtd">
<svg version="1.0" xmlns="http://www.w3.org/2000/svg"
 width="700.000000pt" height="700.000000pt" viewBox="0 0 700.000000 700.000000"
 preserveAspectRatio="xMidYMid meet">
<metadata>
Created by potrace 1.14, written by Peter Selinger 2001-2017
</metadata>
<g transform="translate(0.000000,700.000000) scale(0.100000,-0.100000)"
fill="#000000" stroke="none">
<path d="M953 5354 c17 -13 37 -27 42 -31 6 -5 49 -34 97 -66 49 -32 92 -66
97 -75 11 -22 8 -41 -28 -154 -31 -100 -37 -119 -136 -458 -151 -519 -178
-608 -196 -664 -11 -34 -15 -62 -10 -65 5 -3 409 -5 898 -5 488 1 891 0 894
-2 4 -2 -13 -70 -37 -151 -24 -82 -53 -184 -65 -227 -25 -99 -42 -132 -71
-142 -13 -4 -465 -7 -1005 -6 -658 1 -992 -2 -1012 -9 -16 -6 -42 -27 -58 -47
-15 -20 -33 -44 -40 -52 -56 -70 -115 -146 -211 -271 l-111 -147 32 -3 c63 -7
2814 -2 2862 5 125 19 252 114 305 229 24 51 92 257 105 317 2 8 62 215 135
460 72 245 134 455 136 468 4 20 0 22 -33 23 -21 0 -424 0 -895 0 -669 1 -858
4 -858 13 0 7 20 82 46 167 25 85 70 240 100 344 31 105 69 235 86 290 16 55
34 114 38 130 5 17 16 55 24 85 9 30 16 58 16 61 0 3 -265 5 -590 6 l-590 0
33 -23z"/>
<path d="M2299 5353 c-6 -16 -12 -35 -14 -43 -6 -21 -28 -98 -65 -220 -18 -58
-34 -115 -37 -127 l-5 -23 1931 0 c1206 0 1931 -4 1931 -9 0 -26 -185 -612
-206 -652 -17 -35 -69 -74 -109 -84 -32 -7 -903 -8 -915 0 -4 2 15 80 42 172
28 93 51 175 53 183 2 8 18 62 34 120 17 58 31 108 31 111 0 4 -265 6 -590 6
-324 1 -590 -2 -590 -6 0 -3 58 -44 128 -91 105 -70 128 -90 130 -112 2 -15
-15 -87 -37 -160 -22 -73 -99 -333 -171 -578 -264 -891 -310 -1053 -305 -1059
6 -5 780 -8 813 -2 13 2 29 13 37 25 11 17 81 242 115 371 7 27 66 226 137
462 16 54 32 88 46 98 19 13 119 15 789 15 530 0 783 3 820 11 124 26 234 112
287 222 17 34 62 170 100 302 85 289 309 1053 317 1078 5 16 -111 17 -2341 17
l-2345 0 -11 -27z"/>
<path d="M4880 3556 c17 -22 73 -95 125 -161 201 -255 230 -293 298 -390 105
-148 153 -191 254 -223 19 -7 189 -9 460 -7 235 1 430 3 432 4 5 1 -24 37
-344 421 -332 399 -306 370 -330 383 -14 8 -153 12 -472 13 l-453 1 30 -41z"/>
<path d="M445 2360 c-4 -6 -35 -126 -41 -157 -2 -12 -9 -34 -14 -48 -5 -14 -7
-25 -4 -25 2 0 0 -8 -5 -17 -5 -10 -11 -31 -14 -48 -3 -16 -19 -86 -37 -155
-18 -69 -34 -134 -36 -145 -2 -11 -24 -95 -47 -187 l-43 -168 166 0 167 0 11
53 c7 28 31 132 54 230 l42 177 153 0 c170 0 162 4 139 -73 -8 -26 -12 -47
-10 -47 2 0 -1 -11 -6 -25 -5 -14 -12 -36 -14 -48 -2 -12 -12 -51 -21 -87 -9
-36 -18 -72 -20 -81 -2 -9 -8 -34 -14 -55 -6 -21 -9 -39 -8 -41 6 -5 319 -5
324 1 4 4 139 534 168 656 2 8 17 69 33 135 17 66 32 129 34 140 3 19 -3 20
-160 20 l-162 1 -10 -36 c-20 -79 -52 -206 -56 -223 -10 -51 -15 -57 -52 -58
-265 -4 -272 -4 -267 11 9 32 75 295 75 300 0 7 -320 7 -325 0z"/>
<path d="M1721 2356 c-9 -12 -242 -938 -237 -943 3 -4 958 -4 961 -1 2 5 235
942 235 948 0 11 -951 6 -959 -4z m584 -180 c-20 -90 -154 -618 -158 -622 -2
-2 -72 -3 -154 -2 l-149 3 33 135 c18 74 35 144 37 155 3 11 23 94 46 185 l42
165 154 1 c150 0 153 0 149 -20z"/>
<path d="M2988 2341 c-5 -15 -12 -35 -14 -46 -2 -11 -20 -83 -39 -160 -20 -77
-38 -149 -41 -160 -2 -11 -20 -83 -39 -160 -20 -77 -38 -149 -40 -160 -2 -11
-17 -71 -33 -132 l-29 -113 131 -1 c72 0 145 -1 162 -2 l31 -2 63 250 c72 284
76 297 83 275 34 -95 75 -210 118 -330 28 -80 51 -155 51 -167 -2 -22 0 -22
162 -25 l163 -3 117 470 c64 259 117 475 116 481 0 7 -54 10 -162 10 l-162 -1
-13 -50 c-7 -27 -15 -59 -17 -71 -7 -37 -98 -399 -101 -402 -1 -1 -11 24 -23
55 -11 32 -50 141 -87 243 -37 102 -67 194 -67 205 0 20 -6 21 -160 21 l-160
0 -10 -25z"/>
<path d="M4264 2355 c-1 -5 -12 -48 -24 -95 -11 -47 -63 -255 -115 -462 -52
-207 -95 -379 -95 -383 0 -3 73 -4 162 -3 l161 3 19 65 c10 36 21 81 24 100 3
19 8 38 11 43 2 4 7 19 9 34 11 60 18 57 110 -54 49 -59 97 -117 106 -128 9
-11 25 -30 35 -42 17 -22 25 -23 166 -24 82 0 150 1 152 3 3 2 -56 79 -173
227 -98 123 -192 247 -192 253 0 4 62 54 138 110 75 57 142 106 147 111 6 4
80 59 165 123 85 63 158 119 163 123 4 4 -79 7 -185 6 l-193 -1 -155 -115
c-85 -64 -156 -113 -158 -109 -1 3 9 53 23 111 14 57 25 106 25 110 0 10 -322
5 -326 -6z"/>
<path d="M5584 2266 c-88 -137 -178 -275 -243 -377 -30 -46 -87 -133 -126
-194 -40 -60 -97 -149 -128 -197 l-56 -87 117 -3 c64 -2 145 -2 180 0 l62 3
49 73 49 72 159 -1 c176 -2 174 -2 171 -12 -1 -5 2 -36 6 -70 l8 -62 160 -3
160 -3 -7 69 c-3 39 -8 72 -10 75 -1 4 -6 29 -9 56 -9 72 -14 106 -20 140 -3
17 -8 53 -11 80 -4 28 -8 57 -10 65 -2 8 -7 38 -10 65 -3 28 -10 75 -15 105
-5 30 -12 75 -15 100 -3 25 -8 56 -11 70 -2 14 -7 47 -9 74 -3 28 -8 52 -11
55 -3 3 -87 6 -185 7 l-180 1 -65 -101z m172 -323 c1 -22 13 -103 24 -163 5
-25 5 -47 0 -50 -10 -6 -168 -5 -175 1 -5 5 137 229 145 229 3 0 6 -8 6 -17z"/>
<path d="M6495 2360 c-6 -10 -235 -927 -235 -940 0 -6 63 -10 163 -10 l162 0
115 458 c62 251 114 466 114 477 1 19 -6 20 -157 21 -87 0 -160 -3 -162 -6z"/>
</g>
</svg>
